# This file uses centimeters as units for non-parametric coordinates.

mtllib plane.mtl
g default
v 15.868400 20.873600 -124.949997
v -0.000233 20.873600 124.949997
v 124.949997 20.873600 -124.949997
v 15.868400 20.124399 -124.949997
v -0.000233 20.124399 124.949997
v -0.000244 -20.873899 -124.949997
v -15.868900 20.124399 -124.949997
v -15.868900 20.873600 -124.949997
v -124.949997 20.873600 -124.949997
v -124.949997 20.124399 -124.949997
v 124.949997 20.124399 -124.949997
vt 182.850998 -54.805199
vt 178.914001 -54.555199
vt 182.850998 -56.523701
vt -185.957001 62.191799
vt -182.011993 62.203602
vt -185.957001 62.203602
vt -182.011993 62.191799
vt 182.011993 73.546898
vt 185.940994 72.854500
vt 185.957001 73.546898
vt -179.042007 34.310501
vt -179.026001 33.618000
vt -175.097000 34.310501
vt 179.042007 62.203602
vt 175.097000 62.191799
vt 179.042007 62.191799
vt 175.097000 62.203602
vt 182.850998 -52.586700
vt 182.850998 -54.305199
vt -140.029999 62.191799
vt -135.628006 62.203602
vt -140.029999 62.203602
vt -135.628006 62.191799
vt 184.423996 62.191799
vt 188.824997 62.203602
vt 184.423996 62.203602
vt 188.824997 62.191799
vt -54.805199 62.191799
vt -56.523701 62.203602
vt -56.523701 62.191799
vt -54.805199 62.203602
vt -54.305199 62.203602
vt -52.586700 62.191799
vt -52.586700 62.203602
vt -54.305199 62.191799
vn -0.000001 1.000000 0.000000
vn -0.000001 1.000000 0.000000
vn -0.000001 1.000000 0.000000
vn -0.997990 0.000000 -0.063372
vn -0.997990 0.000000 -0.063372
vn -0.997989 0.000082 -0.063386
vn -0.997990 0.000000 -0.063372
vn -0.997990 0.000000 -0.063372
vn -0.997991 -0.000082 -0.063359
vn 0.930950 -0.360330 0.059114
vn 0.930950 -0.360330 0.059114
vn 0.930950 -0.360330 0.059114
vn -0.930950 -0.360330 0.059115
vn -0.930950 -0.360330 0.059115
vn -0.930950 -0.360330 0.059115
vn 0.997990 0.000000 -0.063372
vn 0.997990 0.000000 -0.063372
vn 0.997991 -0.000082 -0.063359
vn 0.997990 0.000000 -0.063372
vn 0.997990 0.000000 -0.063372
vn 0.997989 0.000082 -0.063386
vn -0.000001 1.000000 0.000000
vn -0.000001 1.000000 0.000000
vn -0.000001 1.000000 0.000000
vn -0.894427 -0.000000 0.447213
vn -0.894427 -0.000000 0.447213
vn -0.894392 -0.000541 0.447285
vn -0.894427 -0.000000 0.447213
vn -0.894427 -0.000000 0.447213
vn -0.894463 0.000541 0.447142
vn 0.894427 0.000000 0.447214
vn 0.894427 0.000000 0.447214
vn 0.894391 0.000176 0.447286
vn 0.894427 0.000000 0.447214
vn 0.894427 0.000000 0.447214
vn 0.894463 -0.000176 0.447141
vn -0.000000 -0.000000 -1.000000
vn -0.000000 -0.000000 -1.000000
vn -0.000000 -0.001388 -0.999999
vn -0.000000 -0.000000 -1.000000
vn -0.000000 -0.000000 -1.000000
vn -0.000000 0.001388 -0.999999
vn -0.000000 0.000000 -1.000000
vn -0.000000 0.000000 -1.000000
vn -0.000000 0.000956 -1.000000
vn -0.000000 0.000000 -1.000000
vn -0.000000 0.000000 -1.000000
vn -0.000000 -0.000956 -1.000000
s off
g Mesh1 Model polySurface1
usemtl _PapayaWhip_
f 1/1/1 2/2/2 3/3/3
f 4/4/4 2/5/5 1/6/6
f 2/5/7 4/4/8 5/7/9
f 5/8/10 6/9/11 4/10/12
f 7/11/13 6/12/14 5/13/15
f 8/14/16 5/15/17 7/16/18
f 5/15/19 8/14/20 2/17/21
f 9/18/22 2/2/23 8/19/24
f 10/20/25 2/21/26 9/22/27
f 2/21/28 10/20/29 5/23/30
f 5/24/31 3/25/32 2/26/33
f 3/25/34 5/24/35 11/27/36
f 4/28/37 3/29/38 11/30/39
f 3/29/40 4/28/41 1/31/42
f 8/32/43 10/33/44 9/34/45
f 10/33/46 8/32/47 7/35/48
